<svg width="200" height="200" viewBox="0 0 200 200" fill="none" xmlns="http://www.w3.org/2000/svg">
<g clip-path="url(#clip0_93_61)">
<path fill-rule="evenodd" clip-rule="evenodd" d="M99.5923 33.1975C106.688 33.1975 113.967 33.3801 121.021 33.6788L129.354 34.0772L137.33 34.5503L144.799 35.0565L151.621 35.5877C159.025 36.1544 165.991 39.3137 171.295 44.5098C176.599 49.706 179.901 56.6062 180.619 63.9964L180.951 67.5237L181.573 75.0761C182.154 82.9024 182.586 91.4341 182.586 99.5924C182.586 107.751 182.154 116.282 181.573 124.109L180.951 131.661C180.843 132.873 180.735 134.043 180.619 135.188C179.9 142.58 176.597 149.481 171.292 154.678C165.986 159.874 159.018 163.032 151.613 163.597L144.807 164.12L137.338 164.635L129.354 165.108L121.021 165.506C113.882 165.816 106.738 165.977 99.5923 165.987C92.4468 165.977 85.3022 165.816 78.1634 165.506L69.8308 165.108L61.8551 164.635L54.3857 164.12L47.5636 163.597C40.1601 163.03 33.1937 159.871 27.8897 154.675C22.5857 149.479 19.2841 142.579 18.5656 135.188L18.2336 131.661L17.6112 124.109C16.9766 115.952 16.6388 107.774 16.5986 99.5924C16.5986 91.4341 17.0302 82.9024 17.6112 75.0761L18.2336 67.5237C18.3415 66.3119 18.4494 65.1417 18.5656 63.9964C19.2838 56.6075 22.5843 49.7084 27.8865 44.5124C33.1888 39.3164 40.1533 36.1562 47.5553 35.5877L54.3691 35.0565L61.8385 34.5503L69.8225 34.0772L78.155 33.6788C85.2967 33.3687 92.444 33.2082 99.5923 33.1975ZM82.9936 79.4664V119.718C82.9936 123.553 87.1433 125.943 90.463 124.034L125.32 103.908C126.079 103.471 126.709 102.843 127.147 102.085C127.585 101.327 127.816 100.468 127.816 99.5924C127.816 98.7172 127.585 97.8575 127.147 97.0998C126.709 96.3422 126.079 95.7134 125.32 95.2767L90.463 75.1591C89.7058 74.7219 88.8468 74.4918 87.9724 74.4919C87.098 74.4921 86.2391 74.7224 85.482 75.1599C84.7249 75.5973 84.0964 76.2264 83.6595 76.9838C83.2227 77.7413 82.993 78.6004 82.9936 79.4748V79.4664Z" fill="white"/>
</g>
<defs>
<clipPath id="clip0_93_61">
<rect width="199.185" height="199.185" fill="white"/>
</clipPath>
</defs>
</svg>
