<svg width="345" height="316" viewBox="0 0 345 316" fill="none" xmlns="http://www.w3.org/2000/svg">
<path d="M159.5 290.288C0.500031 281.288 -22.0001 61.7879 159.5 148.788C341 235.788 352 61.2879 236 23.7879" stroke="#1D1C2C" stroke-width="50"/>
<path d="M50.72 150.788V81.6679H63.776V110.084H94.688V81.6679H107.744V150.788H94.688V122.276H63.776V150.788H50.72ZM116.42 150.788L137.54 81.6679H157.028L178.148 150.788H164.708L145.892 89.8279H148.388L129.86 150.788H116.42ZM129.092 136.388V124.196H165.572V136.388H129.092ZM214.54 152.228C207.628 152.228 201.66 150.724 196.636 147.716C191.644 144.708 187.788 140.5 185.068 135.092C182.38 129.684 181.036 123.396 181.036 116.228C181.036 109.06 182.38 102.772 185.068 97.3639C187.788 91.9559 191.644 87.7479 196.636 84.7399C201.66 81.7319 207.628 80.2279 214.54 80.2279C222.476 80.2279 229.132 82.1959 234.508 86.1319C239.916 90.0679 243.724 95.3959 245.932 102.116L232.78 105.764C231.5 101.572 229.34 98.3239 226.3 96.0199C223.26 93.6839 219.34 92.5159 214.54 92.5159C210.156 92.5159 206.492 93.4919 203.548 95.4439C200.636 97.3959 198.444 100.148 196.972 103.7C195.5 107.252 194.764 111.428 194.764 116.228C194.764 121.028 195.5 125.204 196.972 128.756C198.444 132.308 200.636 135.06 203.548 137.012C206.492 138.964 210.156 139.94 214.54 139.94C219.34 139.94 223.26 138.772 226.3 136.436C229.34 134.1 231.5 130.852 232.78 126.692L245.932 130.34C243.724 137.06 239.916 142.388 234.508 146.324C229.132 150.26 222.476 152.228 214.54 152.228ZM256.501 150.788V81.6679H269.557V113.54L295.861 81.6679H311.797L282.901 115.748L313.621 150.788H297.109L269.557 119.3V150.788H256.501Z" fill="#1B918A"/>
<path d="M50.72 150.788V81.6679H63.776V110.084H94.688V81.6679H107.744V150.788H94.688V122.276H63.776V150.788H50.72ZM116.42 150.788L137.54 81.6679H157.028L178.148 150.788H164.708L145.892 89.8279H148.388L129.86 150.788H116.42ZM129.092 136.388V124.196H165.572V136.388H129.092ZM214.54 152.228C207.628 152.228 201.66 150.724 196.636 147.716C191.644 144.708 187.788 140.5 185.068 135.092C182.38 129.684 181.036 123.396 181.036 116.228C181.036 109.06 182.38 102.772 185.068 97.3639C187.788 91.9559 191.644 87.7479 196.636 84.7399C201.66 81.7319 207.628 80.2279 214.54 80.2279C222.476 80.2279 229.132 82.1959 234.508 86.1319C239.916 90.0679 243.724 95.3959 245.932 102.116L232.78 105.764C231.5 101.572 229.34 98.3239 226.3 96.0199C223.26 93.6839 219.34 92.5159 214.54 92.5159C210.156 92.5159 206.492 93.4919 203.548 95.4439C200.636 97.3959 198.444 100.148 196.972 103.7C195.5 107.252 194.764 111.428 194.764 116.228C194.764 121.028 195.5 125.204 196.972 128.756C198.444 132.308 200.636 135.06 203.548 137.012C206.492 138.964 210.156 139.94 214.54 139.94C219.34 139.94 223.26 138.772 226.3 136.436C229.34 134.1 231.5 130.852 232.78 126.692L245.932 130.34C243.724 137.06 239.916 142.388 234.508 146.324C229.132 150.26 222.476 152.228 214.54 152.228ZM256.501 150.788V81.6679H269.557V113.54L295.861 81.6679H311.797L282.901 115.748L313.621 150.788H297.109L269.557 119.3V150.788H256.501Z" fill="#232332" fill-opacity="0.2"/>
<path d="M48.72 149.788V80.6679H61.776V109.084H92.688V80.6679H105.744V149.788H92.688V121.276H61.776V149.788H48.72ZM114.42 149.788L135.54 80.6679H155.028L176.148 149.788H162.708L143.892 88.8279H146.388L127.86 149.788H114.42ZM127.092 135.388V123.196H163.572V135.388H127.092ZM212.54 151.228C205.628 151.228 199.66 149.724 194.636 146.716C189.644 143.708 185.788 139.5 183.068 134.092C180.38 128.684 179.036 122.396 179.036 115.228C179.036 108.06 180.38 101.772 183.068 96.3639C185.788 90.9559 189.644 86.7479 194.636 83.7399C199.66 80.7319 205.628 79.2279 212.54 79.2279C220.476 79.2279 227.132 81.1959 232.508 85.1319C237.916 89.0679 241.724 94.3959 243.932 101.116L230.78 104.764C229.5 100.572 227.34 97.3239 224.3 95.0199C221.26 92.6839 217.34 91.5159 212.54 91.5159C208.156 91.5159 204.492 92.4919 201.548 94.4439C198.636 96.3959 196.444 99.1479 194.972 102.7C193.5 106.252 192.764 110.428 192.764 115.228C192.764 120.028 193.5 124.204 194.972 127.756C196.444 131.308 198.636 134.06 201.548 136.012C204.492 137.964 208.156 138.94 212.54 138.94C217.34 138.94 221.26 137.772 224.3 135.436C227.34 133.1 229.5 129.852 230.78 125.692L243.932 129.34C241.724 136.06 237.916 141.388 232.508 145.324C227.132 149.26 220.476 151.228 212.54 151.228ZM254.501 149.788V80.6679H267.557V112.54L293.861 80.6679H309.797L280.901 114.748L311.621 149.788H295.109L267.557 118.3V149.788H254.501Z" fill="#1B918A"/>
<path d="M48.72 149.788V80.6679H61.776V109.084H92.688V80.6679H105.744V149.788H92.688V121.276H61.776V149.788H48.72ZM114.42 149.788L135.54 80.6679H155.028L176.148 149.788H162.708L143.892 88.8279H146.388L127.86 149.788H114.42ZM127.092 135.388V123.196H163.572V135.388H127.092ZM212.54 151.228C205.628 151.228 199.66 149.724 194.636 146.716C189.644 143.708 185.788 139.5 183.068 134.092C180.38 128.684 179.036 122.396 179.036 115.228C179.036 108.06 180.38 101.772 183.068 96.3639C185.788 90.9559 189.644 86.7479 194.636 83.7399C199.66 80.7319 205.628 79.2279 212.54 79.2279C220.476 79.2279 227.132 81.1959 232.508 85.1319C237.916 89.0679 241.724 94.3959 243.932 101.116L230.78 104.764C229.5 100.572 227.34 97.3239 224.3 95.0199C221.26 92.6839 217.34 91.5159 212.54 91.5159C208.156 91.5159 204.492 92.4919 201.548 94.4439C198.636 96.3959 196.444 99.1479 194.972 102.7C193.5 106.252 192.764 110.428 192.764 115.228C192.764 120.028 193.5 124.204 194.972 127.756C196.444 131.308 198.636 134.06 201.548 136.012C204.492 137.964 208.156 138.94 212.54 138.94C217.34 138.94 221.26 137.772 224.3 135.436C227.34 133.1 229.5 129.852 230.78 125.692L243.932 129.34C241.724 136.06 237.916 141.388 232.508 145.324C227.132 149.26 220.476 151.228 212.54 151.228ZM254.501 149.788V80.6679H267.557V112.54L293.861 80.6679H309.797L280.901 114.748L311.621 149.788H295.109L267.557 118.3V149.788H254.501Z" fill="#232332" fill-opacity="0.15"/>
<path d="M46.72 148.788V79.6679H59.776V108.084H90.688V79.6679H103.744V148.788H90.688V120.276H59.776V148.788H46.72ZM112.42 148.788L133.54 79.6679H153.028L174.148 148.788H160.708L141.892 87.8279H144.388L125.86 148.788H112.42ZM125.092 134.388V122.196H161.572V134.388H125.092ZM210.54 150.228C203.628 150.228 197.66 148.724 192.636 145.716C187.644 142.708 183.788 138.5 181.068 133.092C178.38 127.684 177.036 121.396 177.036 114.228C177.036 107.06 178.38 100.772 181.068 95.3639C183.788 89.9559 187.644 85.7479 192.636 82.7399C197.66 79.7319 203.628 78.2279 210.54 78.2279C218.476 78.2279 225.132 80.1959 230.508 84.1319C235.916 88.0679 239.724 93.3959 241.932 100.116L228.78 103.764C227.5 99.5719 225.34 96.3239 222.3 94.0199C219.26 91.6839 215.34 90.5159 210.54 90.5159C206.156 90.5159 202.492 91.4919 199.548 93.4439C196.636 95.3959 194.444 98.1479 192.972 101.7C191.5 105.252 190.764 109.428 190.764 114.228C190.764 119.028 191.5 123.204 192.972 126.756C194.444 130.308 196.636 133.06 199.548 135.012C202.492 136.964 206.156 137.94 210.54 137.94C215.34 137.94 219.26 136.772 222.3 134.436C225.34 132.1 227.5 128.852 228.78 124.692L241.932 128.34C239.724 135.06 235.916 140.388 230.508 144.324C225.132 148.26 218.476 150.228 210.54 150.228ZM252.501 148.788V79.6679H265.557V111.54L291.861 79.6679H307.797L278.901 113.748L309.621 148.788H293.109L265.557 117.3V148.788H252.501Z" fill="#1B918A"/>
<path d="M46.72 148.788V79.6679H59.776V108.084H90.688V79.6679H103.744V148.788H90.688V120.276H59.776V148.788H46.72ZM112.42 148.788L133.54 79.6679H153.028L174.148 148.788H160.708L141.892 87.8279H144.388L125.86 148.788H112.42ZM125.092 134.388V122.196H161.572V134.388H125.092ZM210.54 150.228C203.628 150.228 197.66 148.724 192.636 145.716C187.644 142.708 183.788 138.5 181.068 133.092C178.38 127.684 177.036 121.396 177.036 114.228C177.036 107.06 178.38 100.772 181.068 95.3639C183.788 89.9559 187.644 85.7479 192.636 82.7399C197.66 79.7319 203.628 78.2279 210.54 78.2279C218.476 78.2279 225.132 80.1959 230.508 84.1319C235.916 88.0679 239.724 93.3959 241.932 100.116L228.78 103.764C227.5 99.5719 225.34 96.3239 222.3 94.0199C219.26 91.6839 215.34 90.5159 210.54 90.5159C206.156 90.5159 202.492 91.4919 199.548 93.4439C196.636 95.3959 194.444 98.1479 192.972 101.7C191.5 105.252 190.764 109.428 190.764 114.228C190.764 119.028 191.5 123.204 192.972 126.756C194.444 130.308 196.636 133.06 199.548 135.012C202.492 136.964 206.156 137.94 210.54 137.94C215.34 137.94 219.26 136.772 222.3 134.436C225.34 132.1 227.5 128.852 228.78 124.692L241.932 128.34C239.724 135.06 235.916 140.388 230.508 144.324C225.132 148.26 218.476 150.228 210.54 150.228ZM252.501 148.788V79.6679H265.557V111.54L291.861 79.6679H307.797L278.901 113.748L309.621 148.788H293.109L265.557 117.3V148.788H252.501Z" fill="#232332" fill-opacity="0.1"/>
<path d="M44.72 147.788V78.6679H57.776V107.084H88.688V78.6679H101.744V147.788H88.688V119.276H57.776V147.788H44.72ZM110.42 147.788L131.54 78.6679H151.028L172.148 147.788H158.708L139.892 86.8279H142.388L123.86 147.788H110.42ZM123.092 133.388V121.196H159.572V133.388H123.092ZM208.54 149.228C201.628 149.228 195.66 147.724 190.636 144.716C185.644 141.708 181.788 137.5 179.068 132.092C176.38 126.684 175.036 120.396 175.036 113.228C175.036 106.06 176.38 99.7719 179.068 94.3639C181.788 88.9559 185.644 84.7479 190.636 81.7399C195.66 78.7319 201.628 77.2279 208.54 77.2279C216.476 77.2279 223.132 79.1959 228.508 83.1319C233.916 87.0679 237.724 92.3959 239.932 99.1159L226.78 102.764C225.5 98.5719 223.34 95.3239 220.3 93.0199C217.26 90.6839 213.34 89.5159 208.54 89.5159C204.156 89.5159 200.492 90.4919 197.548 92.4439C194.636 94.3959 192.444 97.1479 190.972 100.7C189.5 104.252 188.764 108.428 188.764 113.228C188.764 118.028 189.5 122.204 190.972 125.756C192.444 129.308 194.636 132.06 197.548 134.012C200.492 135.964 204.156 136.94 208.54 136.94C213.34 136.94 217.26 135.772 220.3 133.436C223.34 131.1 225.5 127.852 226.78 123.692L239.932 127.34C237.724 134.06 233.916 139.388 228.508 143.324C223.132 147.26 216.476 149.228 208.54 149.228ZM250.501 147.788V78.6679H263.557V110.54L289.861 78.6679H305.797L276.901 112.748L307.621 147.788H291.109L263.557 116.3V147.788H250.501Z" fill="#1B918A"/>
<path d="M44.72 147.788V78.6679H57.776V107.084H88.688V78.6679H101.744V147.788H88.688V119.276H57.776V147.788H44.72ZM110.42 147.788L131.54 78.6679H151.028L172.148 147.788H158.708L139.892 86.8279H142.388L123.86 147.788H110.42ZM123.092 133.388V121.196H159.572V133.388H123.092ZM208.54 149.228C201.628 149.228 195.66 147.724 190.636 144.716C185.644 141.708 181.788 137.5 179.068 132.092C176.38 126.684 175.036 120.396 175.036 113.228C175.036 106.06 176.38 99.7719 179.068 94.3639C181.788 88.9559 185.644 84.7479 190.636 81.7399C195.66 78.7319 201.628 77.2279 208.54 77.2279C216.476 77.2279 223.132 79.1959 228.508 83.1319C233.916 87.0679 237.724 92.3959 239.932 99.1159L226.78 102.764C225.5 98.5719 223.34 95.3239 220.3 93.0199C217.26 90.6839 213.34 89.5159 208.54 89.5159C204.156 89.5159 200.492 90.4919 197.548 92.4439C194.636 94.3959 192.444 97.1479 190.972 100.7C189.5 104.252 188.764 108.428 188.764 113.228C188.764 118.028 189.5 122.204 190.972 125.756C192.444 129.308 194.636 132.06 197.548 134.012C200.492 135.964 204.156 136.94 208.54 136.94C213.34 136.94 217.26 135.772 220.3 133.436C223.34 131.1 225.5 127.852 226.78 123.692L239.932 127.34C237.724 134.06 233.916 139.388 228.508 143.324C223.132 147.26 216.476 149.228 208.54 149.228ZM250.501 147.788V78.6679H263.557V110.54L289.861 78.6679H305.797L276.901 112.748L307.621 147.788H291.109L263.557 116.3V147.788H250.501Z" fill="#232332" fill-opacity="0.05"/>
<path d="M42.72 146.788V77.6679H55.776V106.084H86.688V77.6679H99.744V146.788H86.688V118.276H55.776V146.788H42.72ZM108.42 146.788L129.54 77.6679H149.028L170.148 146.788H156.708L137.892 85.8279H140.388L121.86 146.788H108.42ZM121.092 132.388V120.196H157.572V132.388H121.092ZM206.54 148.228C199.628 148.228 193.66 146.724 188.636 143.716C183.644 140.708 179.788 136.5 177.068 131.092C174.38 125.684 173.036 119.396 173.036 112.228C173.036 105.06 174.38 98.7719 177.068 93.3639C179.788 87.9559 183.644 83.7479 188.636 80.7399C193.66 77.7319 199.628 76.2279 206.54 76.2279C214.476 76.2279 221.132 78.1959 226.508 82.1319C231.916 86.0679 235.724 91.3959 237.932 98.1159L224.78 101.764C223.5 97.5719 221.34 94.3239 218.3 92.0199C215.26 89.6839 211.34 88.5159 206.54 88.5159C202.156 88.5159 198.492 89.4919 195.548 91.4439C192.636 93.3959 190.444 96.1479 188.972 99.6999C187.5 103.252 186.764 107.428 186.764 112.228C186.764 117.028 187.5 121.204 188.972 124.756C190.444 128.308 192.636 131.06 195.548 133.012C198.492 134.964 202.156 135.94 206.54 135.94C211.34 135.94 215.26 134.772 218.3 132.436C221.34 130.1 223.5 126.852 224.78 122.692L237.932 126.34C235.724 133.06 231.916 138.388 226.508 142.324C221.132 146.26 214.476 148.228 206.54 148.228ZM248.501 146.788V77.6679H261.557V109.54L287.861 77.6679H303.797L274.901 111.748L305.621 146.788H289.109L261.557 115.3V146.788H248.501Z" fill="#1B918A"/>
<path d="M166.848 243.228C161.28 243.228 156.384 242.108 152.16 239.868C147.936 237.596 144.64 234.412 142.272 230.316C139.904 226.22 138.72 221.404 138.72 215.868V172.764L151.968 172.668V215.772C151.968 218.044 152.352 220.108 153.12 221.964C153.888 223.82 154.944 225.42 156.288 226.764C157.664 228.108 159.248 229.148 161.04 229.884C162.864 230.588 164.8 230.94 166.848 230.94C168.96 230.94 170.912 230.572 172.704 229.836C174.528 229.1 176.112 228.06 177.456 226.716C178.8 225.372 179.84 223.772 180.576 221.916C181.344 220.06 181.728 218.012 181.728 215.772V172.668H194.976V215.868C194.976 221.404 193.792 226.22 191.424 230.316C189.056 234.412 185.76 237.596 181.536 239.868C177.312 242.108 172.416 243.228 166.848 243.228ZM238.04 243.228C231.128 243.228 225.16 241.724 220.136 238.716C215.144 235.708 211.288 231.5 208.568 226.092C205.88 220.684 204.536 214.396 204.536 207.228C204.536 200.06 205.88 193.772 208.568 188.364C211.288 182.956 215.144 178.748 220.136 175.74C225.16 172.732 231.128 171.228 238.04 171.228C245.976 171.228 252.632 173.196 258.008 177.132C263.416 181.068 267.224 186.396 269.432 193.116L256.28 196.764C255 192.572 252.84 189.324 249.8 187.02C246.76 184.684 242.84 183.516 238.04 183.516C233.656 183.516 229.992 184.492 227.048 186.444C224.136 188.396 221.944 191.148 220.472 194.7C219 198.252 218.264 202.428 218.264 207.228C218.264 212.028 219 216.204 220.472 219.756C221.944 223.308 224.136 226.06 227.048 228.012C229.992 229.964 233.656 230.94 238.04 230.94C242.84 230.94 246.76 229.772 249.8 227.436C252.84 225.1 255 221.852 256.28 217.692L269.432 221.34C267.224 228.06 263.416 233.388 258.008 237.324C252.632 241.26 245.976 243.228 238.04 243.228ZM280.961 241.788V172.668H294.017V241.788H280.961Z" fill="#375AD7"/>
<path d="M166.848 243.228C161.28 243.228 156.384 242.108 152.16 239.868C147.936 237.596 144.64 234.412 142.272 230.316C139.904 226.22 138.72 221.404 138.72 215.868V172.764L151.968 172.668V215.772C151.968 218.044 152.352 220.108 153.12 221.964C153.888 223.82 154.944 225.42 156.288 226.764C157.664 228.108 159.248 229.148 161.04 229.884C162.864 230.588 164.8 230.94 166.848 230.94C168.96 230.94 170.912 230.572 172.704 229.836C174.528 229.1 176.112 228.06 177.456 226.716C178.8 225.372 179.84 223.772 180.576 221.916C181.344 220.06 181.728 218.012 181.728 215.772V172.668H194.976V215.868C194.976 221.404 193.792 226.22 191.424 230.316C189.056 234.412 185.76 237.596 181.536 239.868C177.312 242.108 172.416 243.228 166.848 243.228ZM238.04 243.228C231.128 243.228 225.16 241.724 220.136 238.716C215.144 235.708 211.288 231.5 208.568 226.092C205.88 220.684 204.536 214.396 204.536 207.228C204.536 200.06 205.88 193.772 208.568 188.364C211.288 182.956 215.144 178.748 220.136 175.74C225.16 172.732 231.128 171.228 238.04 171.228C245.976 171.228 252.632 173.196 258.008 177.132C263.416 181.068 267.224 186.396 269.432 193.116L256.28 196.764C255 192.572 252.84 189.324 249.8 187.02C246.76 184.684 242.84 183.516 238.04 183.516C233.656 183.516 229.992 184.492 227.048 186.444C224.136 188.396 221.944 191.148 220.472 194.7C219 198.252 218.264 202.428 218.264 207.228C218.264 212.028 219 216.204 220.472 219.756C221.944 223.308 224.136 226.06 227.048 228.012C229.992 229.964 233.656 230.94 238.04 230.94C242.84 230.94 246.76 229.772 249.8 227.436C252.84 225.1 255 221.852 256.28 217.692L269.432 221.34C267.224 228.06 263.416 233.388 258.008 237.324C252.632 241.26 245.976 243.228 238.04 243.228ZM280.961 241.788V172.668H294.017V241.788H280.961Z" fill="#232332" fill-opacity="0.2"/>
<path d="M164.848 242.228C159.28 242.228 154.384 241.108 150.16 238.868C145.936 236.596 142.64 233.412 140.272 229.316C137.904 225.22 136.72 220.404 136.72 214.868V171.764L149.968 171.668V214.772C149.968 217.044 150.352 219.108 151.12 220.964C151.888 222.82 152.944 224.42 154.288 225.764C155.664 227.108 157.248 228.148 159.04 228.884C160.864 229.588 162.8 229.94 164.848 229.94C166.96 229.94 168.912 229.572 170.704 228.836C172.528 228.1 174.112 227.06 175.456 225.716C176.8 224.372 177.84 222.772 178.576 220.916C179.344 219.06 179.728 217.012 179.728 214.772V171.668H192.976V214.868C192.976 220.404 191.792 225.22 189.424 229.316C187.056 233.412 183.76 236.596 179.536 238.868C175.312 241.108 170.416 242.228 164.848 242.228ZM236.04 242.228C229.128 242.228 223.16 240.724 218.136 237.716C213.144 234.708 209.288 230.5 206.568 225.092C203.88 219.684 202.536 213.396 202.536 206.228C202.536 199.06 203.88 192.772 206.568 187.364C209.288 181.956 213.144 177.748 218.136 174.74C223.16 171.732 229.128 170.228 236.04 170.228C243.976 170.228 250.632 172.196 256.008 176.132C261.416 180.068 265.224 185.396 267.432 192.116L254.28 195.764C253 191.572 250.84 188.324 247.8 186.02C244.76 183.684 240.84 182.516 236.04 182.516C231.656 182.516 227.992 183.492 225.048 185.444C222.136 187.396 219.944 190.148 218.472 193.7C217 197.252 216.264 201.428 216.264 206.228C216.264 211.028 217 215.204 218.472 218.756C219.944 222.308 222.136 225.06 225.048 227.012C227.992 228.964 231.656 229.94 236.04 229.94C240.84 229.94 244.76 228.772 247.8 226.436C250.84 224.1 253 220.852 254.28 216.692L267.432 220.34C265.224 227.06 261.416 232.388 256.008 236.324C250.632 240.26 243.976 242.228 236.04 242.228ZM278.961 240.788V171.668H292.017V240.788H278.961Z" fill="#375AD7"/>
<path d="M164.848 242.228C159.28 242.228 154.384 241.108 150.16 238.868C145.936 236.596 142.64 233.412 140.272 229.316C137.904 225.22 136.72 220.404 136.72 214.868V171.764L149.968 171.668V214.772C149.968 217.044 150.352 219.108 151.12 220.964C151.888 222.82 152.944 224.42 154.288 225.764C155.664 227.108 157.248 228.148 159.04 228.884C160.864 229.588 162.8 229.94 164.848 229.94C166.96 229.94 168.912 229.572 170.704 228.836C172.528 228.1 174.112 227.06 175.456 225.716C176.8 224.372 177.84 222.772 178.576 220.916C179.344 219.06 179.728 217.012 179.728 214.772V171.668H192.976V214.868C192.976 220.404 191.792 225.22 189.424 229.316C187.056 233.412 183.76 236.596 179.536 238.868C175.312 241.108 170.416 242.228 164.848 242.228ZM236.04 242.228C229.128 242.228 223.16 240.724 218.136 237.716C213.144 234.708 209.288 230.5 206.568 225.092C203.88 219.684 202.536 213.396 202.536 206.228C202.536 199.06 203.88 192.772 206.568 187.364C209.288 181.956 213.144 177.748 218.136 174.74C223.16 171.732 229.128 170.228 236.04 170.228C243.976 170.228 250.632 172.196 256.008 176.132C261.416 180.068 265.224 185.396 267.432 192.116L254.28 195.764C253 191.572 250.84 188.324 247.8 186.02C244.76 183.684 240.84 182.516 236.04 182.516C231.656 182.516 227.992 183.492 225.048 185.444C222.136 187.396 219.944 190.148 218.472 193.7C217 197.252 216.264 201.428 216.264 206.228C216.264 211.028 217 215.204 218.472 218.756C219.944 222.308 222.136 225.06 225.048 227.012C227.992 228.964 231.656 229.94 236.04 229.94C240.84 229.94 244.76 228.772 247.8 226.436C250.84 224.1 253 220.852 254.28 216.692L267.432 220.34C265.224 227.06 261.416 232.388 256.008 236.324C250.632 240.26 243.976 242.228 236.04 242.228ZM278.961 240.788V171.668H292.017V240.788H278.961Z" fill="#232332" fill-opacity="0.15"/>
<path d="M162.848 241.228C157.28 241.228 152.384 240.108 148.16 237.868C143.936 235.596 140.64 232.412 138.272 228.316C135.904 224.22 134.72 219.404 134.72 213.868V170.764L147.968 170.668V213.772C147.968 216.044 148.352 218.108 149.12 219.964C149.888 221.82 150.944 223.42 152.288 224.764C153.664 226.108 155.248 227.148 157.04 227.884C158.864 228.588 160.8 228.94 162.848 228.94C164.96 228.94 166.912 228.572 168.704 227.836C170.528 227.1 172.112 226.06 173.456 224.716C174.8 223.372 175.84 221.772 176.576 219.916C177.344 218.06 177.728 216.012 177.728 213.772V170.668H190.976V213.868C190.976 219.404 189.792 224.22 187.424 228.316C185.056 232.412 181.76 235.596 177.536 237.868C173.312 240.108 168.416 241.228 162.848 241.228ZM234.04 241.228C227.128 241.228 221.16 239.724 216.136 236.716C211.144 233.708 207.288 229.5 204.568 224.092C201.88 218.684 200.536 212.396 200.536 205.228C200.536 198.06 201.88 191.772 204.568 186.364C207.288 180.956 211.144 176.748 216.136 173.74C221.16 170.732 227.128 169.228 234.04 169.228C241.976 169.228 248.632 171.196 254.008 175.132C259.416 179.068 263.224 184.396 265.432 191.116L252.28 194.764C251 190.572 248.84 187.324 245.8 185.02C242.76 182.684 238.84 181.516 234.04 181.516C229.656 181.516 225.992 182.492 223.048 184.444C220.136 186.396 217.944 189.148 216.472 192.7C215 196.252 214.264 200.428 214.264 205.228C214.264 210.028 215 214.204 216.472 217.756C217.944 221.308 220.136 224.06 223.048 226.012C225.992 227.964 229.656 228.94 234.04 228.94C238.84 228.94 242.76 227.772 245.8 225.436C248.84 223.1 251 219.852 252.28 215.692L265.432 219.34C263.224 226.06 259.416 231.388 254.008 235.324C248.632 239.26 241.976 241.228 234.04 241.228ZM276.961 239.788V170.668H290.017V239.788H276.961Z" fill="#375AD7"/>
<path d="M162.848 241.228C157.28 241.228 152.384 240.108 148.16 237.868C143.936 235.596 140.64 232.412 138.272 228.316C135.904 224.22 134.72 219.404 134.72 213.868V170.764L147.968 170.668V213.772C147.968 216.044 148.352 218.108 149.12 219.964C149.888 221.82 150.944 223.42 152.288 224.764C153.664 226.108 155.248 227.148 157.04 227.884C158.864 228.588 160.8 228.94 162.848 228.94C164.96 228.94 166.912 228.572 168.704 227.836C170.528 227.1 172.112 226.06 173.456 224.716C174.8 223.372 175.84 221.772 176.576 219.916C177.344 218.06 177.728 216.012 177.728 213.772V170.668H190.976V213.868C190.976 219.404 189.792 224.22 187.424 228.316C185.056 232.412 181.76 235.596 177.536 237.868C173.312 240.108 168.416 241.228 162.848 241.228ZM234.04 241.228C227.128 241.228 221.16 239.724 216.136 236.716C211.144 233.708 207.288 229.5 204.568 224.092C201.88 218.684 200.536 212.396 200.536 205.228C200.536 198.06 201.88 191.772 204.568 186.364C207.288 180.956 211.144 176.748 216.136 173.74C221.16 170.732 227.128 169.228 234.04 169.228C241.976 169.228 248.632 171.196 254.008 175.132C259.416 179.068 263.224 184.396 265.432 191.116L252.28 194.764C251 190.572 248.84 187.324 245.8 185.02C242.76 182.684 238.84 181.516 234.04 181.516C229.656 181.516 225.992 182.492 223.048 184.444C220.136 186.396 217.944 189.148 216.472 192.7C215 196.252 214.264 200.428 214.264 205.228C214.264 210.028 215 214.204 216.472 217.756C217.944 221.308 220.136 224.06 223.048 226.012C225.992 227.964 229.656 228.94 234.04 228.94C238.84 228.94 242.76 227.772 245.8 225.436C248.84 223.1 251 219.852 252.28 215.692L265.432 219.34C263.224 226.06 259.416 231.388 254.008 235.324C248.632 239.26 241.976 241.228 234.04 241.228ZM276.961 239.788V170.668H290.017V239.788H276.961Z" fill="#232332" fill-opacity="0.1"/>
<path d="M160.848 240.228C155.28 240.228 150.384 239.108 146.16 236.868C141.936 234.596 138.64 231.412 136.272 227.316C133.904 223.22 132.72 218.404 132.72 212.868V169.764L145.968 169.668V212.772C145.968 215.044 146.352 217.108 147.12 218.964C147.888 220.82 148.944 222.42 150.288 223.764C151.664 225.108 153.248 226.148 155.04 226.884C156.864 227.588 158.8 227.94 160.848 227.94C162.96 227.94 164.912 227.572 166.704 226.836C168.528 226.1 170.112 225.06 171.456 223.716C172.8 222.372 173.84 220.772 174.576 218.916C175.344 217.06 175.728 215.012 175.728 212.772V169.668H188.976V212.868C188.976 218.404 187.792 223.22 185.424 227.316C183.056 231.412 179.76 234.596 175.536 236.868C171.312 239.108 166.416 240.228 160.848 240.228ZM232.04 240.228C225.128 240.228 219.16 238.724 214.136 235.716C209.144 232.708 205.288 228.5 202.568 223.092C199.88 217.684 198.536 211.396 198.536 204.228C198.536 197.06 199.88 190.772 202.568 185.364C205.288 179.956 209.144 175.748 214.136 172.74C219.16 169.732 225.128 168.228 232.04 168.228C239.976 168.228 246.632 170.196 252.008 174.132C257.416 178.068 261.224 183.396 263.432 190.116L250.28 193.764C249 189.572 246.84 186.324 243.8 184.02C240.76 181.684 236.84 180.516 232.04 180.516C227.656 180.516 223.992 181.492 221.048 183.444C218.136 185.396 215.944 188.148 214.472 191.7C213 195.252 212.264 199.428 212.264 204.228C212.264 209.028 213 213.204 214.472 216.756C215.944 220.308 218.136 223.06 221.048 225.012C223.992 226.964 227.656 227.94 232.04 227.94C236.84 227.94 240.76 226.772 243.8 224.436C246.84 222.1 249 218.852 250.28 214.692L263.432 218.34C261.224 225.06 257.416 230.388 252.008 234.324C246.632 238.26 239.976 240.228 232.04 240.228ZM274.961 238.788V169.668H288.017V238.788H274.961Z" fill="#375AD7"/>
<path d="M160.848 240.228C155.28 240.228 150.384 239.108 146.16 236.868C141.936 234.596 138.64 231.412 136.272 227.316C133.904 223.22 132.72 218.404 132.72 212.868V169.764L145.968 169.668V212.772C145.968 215.044 146.352 217.108 147.12 218.964C147.888 220.82 148.944 222.42 150.288 223.764C151.664 225.108 153.248 226.148 155.04 226.884C156.864 227.588 158.8 227.94 160.848 227.94C162.96 227.94 164.912 227.572 166.704 226.836C168.528 226.1 170.112 225.06 171.456 223.716C172.8 222.372 173.84 220.772 174.576 218.916C175.344 217.06 175.728 215.012 175.728 212.772V169.668H188.976V212.868C188.976 218.404 187.792 223.22 185.424 227.316C183.056 231.412 179.76 234.596 175.536 236.868C171.312 239.108 166.416 240.228 160.848 240.228ZM232.04 240.228C225.128 240.228 219.16 238.724 214.136 235.716C209.144 232.708 205.288 228.5 202.568 223.092C199.88 217.684 198.536 211.396 198.536 204.228C198.536 197.06 199.88 190.772 202.568 185.364C205.288 179.956 209.144 175.748 214.136 172.74C219.16 169.732 225.128 168.228 232.04 168.228C239.976 168.228 246.632 170.196 252.008 174.132C257.416 178.068 261.224 183.396 263.432 190.116L250.28 193.764C249 189.572 246.84 186.324 243.8 184.02C240.76 181.684 236.84 180.516 232.04 180.516C227.656 180.516 223.992 181.492 221.048 183.444C218.136 185.396 215.944 188.148 214.472 191.7C213 195.252 212.264 199.428 212.264 204.228C212.264 209.028 213 213.204 214.472 216.756C215.944 220.308 218.136 223.06 221.048 225.012C223.992 226.964 227.656 227.94 232.04 227.94C236.84 227.94 240.76 226.772 243.8 224.436C246.84 222.1 249 218.852 250.28 214.692L263.432 218.34C261.224 225.06 257.416 230.388 252.008 234.324C246.632 238.26 239.976 240.228 232.04 240.228ZM274.961 238.788V169.668H288.017V238.788H274.961Z" fill="#232332" fill-opacity="0.05"/>
<path d="M158.848 239.228C153.28 239.228 148.384 238.108 144.16 235.868C139.936 233.596 136.64 230.412 134.272 226.316C131.904 222.22 130.72 217.404 130.72 211.868V168.764L143.968 168.668V211.772C143.968 214.044 144.352 216.108 145.12 217.964C145.888 219.82 146.944 221.42 148.288 222.764C149.664 224.108 151.248 225.148 153.04 225.884C154.864 226.588 156.8 226.94 158.848 226.94C160.96 226.94 162.912 226.572 164.704 225.836C166.528 225.1 168.112 224.06 169.456 222.716C170.8 221.372 171.84 219.772 172.576 217.916C173.344 216.06 173.728 214.012 173.728 211.772V168.668H186.976V211.868C186.976 217.404 185.792 222.22 183.424 226.316C181.056 230.412 177.76 233.596 173.536 235.868C169.312 238.108 164.416 239.228 158.848 239.228ZM230.04 239.228C223.128 239.228 217.16 237.724 212.136 234.716C207.144 231.708 203.288 227.5 200.568 222.092C197.88 216.684 196.536 210.396 196.536 203.228C196.536 196.06 197.88 189.772 200.568 184.364C203.288 178.956 207.144 174.748 212.136 171.74C217.16 168.732 223.128 167.228 230.04 167.228C237.976 167.228 244.632 169.196 250.008 173.132C255.416 177.068 259.224 182.396 261.432 189.116L248.28 192.764C247 188.572 244.84 185.324 241.8 183.02C238.76 180.684 234.84 179.516 230.04 179.516C225.656 179.516 221.992 180.492 219.048 182.444C216.136 184.396 213.944 187.148 212.472 190.7C211 194.252 210.264 198.428 210.264 203.228C210.264 208.028 211 212.204 212.472 215.756C213.944 219.308 216.136 222.06 219.048 224.012C221.992 225.964 225.656 226.94 230.04 226.94C234.84 226.94 238.76 225.772 241.8 223.436C244.84 221.1 247 217.852 248.28 213.692L261.432 217.34C259.224 224.06 255.416 229.388 250.008 233.324C244.632 237.26 237.976 239.228 230.04 239.228ZM272.961 237.788V168.668H286.017V237.788H272.961Z" fill="#375AD7"/>
<path d="M44.608 56.5079C42.736 56.5079 41.152 56.1559 39.856 55.4519C38.56 54.7319 37.576 53.7799 36.904 52.5959C36.248 51.4119 35.92 50.1079 35.92 48.6839C35.92 47.4359 36.128 46.3159 36.544 45.3239C36.96 44.3159 37.6 43.4519 38.464 42.7319C39.328 41.9959 40.448 41.3959 41.824 40.9319C42.864 40.5959 44.08 40.2919 45.472 40.0199C46.88 39.7479 48.4 39.4999 50.032 39.2759C51.68 39.0359 53.4 38.7799 55.192 38.5079L53.128 39.6839C53.144 37.8919 52.744 36.5719 51.928 35.7239C51.112 34.8759 49.736 34.4519 47.8 34.4519C46.632 34.4519 45.504 34.7239 44.416 35.2679C43.328 35.8119 42.568 36.7479 42.136 38.0759L36.856 36.4199C37.496 34.2279 38.712 32.4679 40.504 31.1399C42.312 29.8119 44.744 29.1479 47.8 29.1479C50.104 29.1479 52.128 29.5239 53.872 30.2759C55.632 31.0279 56.936 32.2599 57.784 33.9719C58.248 34.8839 58.528 35.8199 58.624 36.7799C58.72 37.7239 58.768 38.7559 58.768 39.8759V55.7879H53.704V50.1719L54.544 51.0839C53.376 52.9559 52.008 54.3319 50.44 55.2119C48.888 56.0759 46.944 56.5079 44.608 56.5079ZM45.76 51.8999C47.072 51.8999 48.192 51.6679 49.12 51.2039C50.048 50.7399 50.784 50.1719 51.328 49.4999C51.888 48.8279 52.264 48.1959 52.456 47.6039C52.76 46.8679 52.928 46.0279 52.96 45.0839C53.008 44.1239 53.032 43.3479 53.032 42.7559L54.808 43.2839C53.064 43.5559 51.568 43.7959 50.32 44.0039C49.072 44.2119 48 44.4119 47.104 44.6039C46.208 44.7799 45.416 44.9799 44.728 45.2039C44.056 45.4439 43.488 45.7239 43.024 46.0439C42.56 46.3639 42.2 46.7319 41.944 47.1479C41.704 47.5639 41.584 48.0519 41.584 48.6119C41.584 49.2519 41.744 49.8199 42.064 50.3159C42.384 50.7959 42.848 51.1799 43.456 51.4679C44.08 51.7559 44.848 51.8999 45.76 51.8999ZM77.4723 56.5079C74.9443 56.5079 72.8243 55.9079 71.1123 54.7079C69.4003 53.5079 68.1123 51.8759 67.2483 49.8119C66.3843 47.7319 65.9523 45.4039 65.9523 42.8279C65.9523 40.2199 66.3843 37.8839 67.2483 35.8199C68.1123 33.7559 69.3763 32.1319 71.0403 30.9479C72.7203 29.7479 74.7923 29.1479 77.2563 29.1479C79.7043 29.1479 81.8243 29.7479 83.6163 30.9479C85.4243 32.1319 86.8243 33.7559 87.8163 35.8199C88.8083 37.8679 89.3043 40.2039 89.3043 42.8279C89.3043 45.4199 88.8163 47.7479 87.8403 49.8119C86.8643 51.8759 85.4883 53.5079 83.7123 54.7079C81.9363 55.9079 79.8563 56.5079 77.4723 56.5079ZM64.9683 55.7879V21.2279H70.8003V37.5959H70.0803V55.7879H64.9683ZM76.5843 51.3239C78.0883 51.3239 79.3283 50.9479 80.3043 50.1959C81.2803 49.4439 82.0003 48.4279 82.4643 47.1479C82.9443 45.8519 83.1843 44.4119 83.1843 42.8279C83.1843 41.2599 82.9443 39.8359 82.4643 38.5559C81.9843 37.2599 81.2403 36.2359 80.2323 35.4839C79.2243 34.7159 77.9443 34.3319 76.3923 34.3319C74.9203 34.3319 73.7203 34.6919 72.7923 35.4119C71.8643 36.1159 71.1763 37.1079 70.7283 38.3879C70.2963 39.6519 70.0803 41.1319 70.0803 42.8279C70.0803 44.5079 70.2963 45.9879 70.7283 47.2679C71.1763 48.5479 71.8723 49.5479 72.8163 50.2679C73.7763 50.9719 75.0323 51.3239 76.5843 51.3239ZM106.042 56.5079C103.45 56.5079 101.186 55.9239 99.2504 54.7559C97.3144 53.5879 95.8104 51.9799 94.7384 49.9319C93.6824 47.8679 93.1544 45.4999 93.1544 42.8279C93.1544 40.1079 93.6984 37.7239 94.7864 35.6759C95.8744 33.6279 97.3864 32.0279 99.3224 30.8759C101.258 29.7239 103.498 29.1479 106.042 29.1479C108.65 29.1479 110.922 29.7319 112.858 30.8999C114.794 32.0679 116.298 33.6839 117.37 35.7479C118.442 37.7959 118.978 40.1559 118.978 42.8279C118.978 45.5159 118.434 47.8919 117.346 49.9559C116.274 52.0039 114.77 53.6119 112.834 54.7799C110.898 55.9319 108.634 56.5079 106.042 56.5079ZM106.042 51.0839C108.346 51.0839 110.058 50.3159 111.178 48.7799C112.298 47.2439 112.858 45.2599 112.858 42.8279C112.858 40.3159 112.29 38.3159 111.154 36.8279C110.018 35.3239 108.314 34.5719 106.042 34.5719C104.49 34.5719 103.21 34.9239 102.202 35.6279C101.21 36.3159 100.474 37.2839 99.9944 38.5319C99.5144 39.7639 99.2744 41.1959 99.2744 42.8279C99.2744 45.3399 99.8424 47.3479 100.978 48.8519C102.13 50.3399 103.818 51.0839 106.042 51.0839ZM133.986 56.5319C132.066 56.5319 130.482 56.2119 129.234 55.5719C127.986 54.9319 126.994 54.1159 126.258 53.1239C125.522 52.1319 124.978 51.0759 124.626 49.9559C124.274 48.8359 124.042 47.7799 123.93 46.7879C123.834 45.7799 123.786 44.9639 123.786 44.3399V29.8679H129.642V42.3479C129.642 43.1479 129.698 44.0519 129.81 45.0599C129.922 46.0519 130.178 47.0119 130.578 47.9399C130.994 48.8519 131.602 49.6039 132.402 50.1959C133.218 50.7879 134.314 51.0839 135.69 51.0839C136.426 51.0839 137.154 50.9639 137.874 50.7239C138.594 50.4839 139.242 50.0759 139.818 49.4999C140.41 48.9079 140.882 48.0999 141.234 47.0759C141.586 46.0519 141.762 44.7559 141.762 43.1879L145.194 44.6519C145.194 46.8599 144.762 48.8599 143.898 50.6519C143.05 52.4439 141.794 53.8759 140.13 54.9479C138.466 56.0039 136.418 56.5319 133.986 56.5319ZM142.458 55.7879V47.7479H141.762V29.8679H147.57V55.7879H142.458ZM169.505 55.7879C167.793 56.1079 166.113 56.2439 164.465 56.1959C162.833 56.1639 161.369 55.8679 160.073 55.3079C158.777 54.7319 157.793 53.8279 157.121 52.5959C156.529 51.4759 156.217 50.3319 156.185 49.1639C156.153 47.9959 156.137 46.6759 156.137 45.2039V22.6679H161.897V44.8679C161.897 45.9079 161.905 46.8199 161.921 47.6039C161.953 48.3879 162.121 49.0279 162.425 49.5239C163.001 50.4839 163.921 51.0199 165.185 51.1319C166.449 51.2439 167.889 51.1799 169.505 50.9399V55.7879ZM151.433 34.4039V29.8679H169.505V34.4039H151.433Z" fill="white"/>
<path d="M40.72 146.788V77.6679H53.776V106.084H84.688V77.6679H97.744V146.788H84.688V118.276H53.776V146.788H40.72ZM106.42 146.788L127.54 77.6679H147.028L168.148 146.788H154.708L135.892 85.8279H138.388L119.86 146.788H106.42ZM119.092 132.388V120.196H155.572V132.388H119.092ZM204.54 148.228C197.628 148.228 191.66 146.724 186.636 143.716C181.644 140.708 177.788 136.5 175.068 131.092C172.38 125.684 171.036 119.396 171.036 112.228C171.036 105.06 172.38 98.7719 175.068 93.3639C177.788 87.9559 181.644 83.7479 186.636 80.7399C191.66 77.7319 197.628 76.2279 204.54 76.2279C212.476 76.2279 219.132 78.1959 224.508 82.1319C229.916 86.0679 233.724 91.3959 235.932 98.1159L222.78 101.764C221.5 97.5719 219.34 94.3239 216.3 92.0199C213.26 89.6839 209.34 88.5159 204.54 88.5159C200.156 88.5159 196.492 89.4919 193.548 91.4439C190.636 93.3959 188.444 96.1479 186.972 99.6999C185.5 103.252 184.764 107.428 184.764 112.228C184.764 117.028 185.5 121.204 186.972 124.756C188.444 128.308 190.636 131.06 193.548 133.012C196.492 134.964 200.156 135.94 204.54 135.94C209.34 135.94 213.26 134.772 216.3 132.436C219.34 130.1 221.5 126.852 222.78 122.692L235.932 126.34C233.724 133.06 229.916 138.388 224.508 142.324C219.132 146.26 212.476 148.228 204.54 148.228ZM246.501 146.788V77.6679H259.557V109.54L285.861 77.6679H301.797L272.901 111.748L303.621 146.788H287.109L259.557 115.3V146.788H246.501Z" fill="#71DD9C"/>
<path d="M77.728 246.868C72.416 246.868 67.552 246.004 63.136 244.276C58.752 242.58 54.944 240.164 51.712 237.028C48.512 233.924 46.032 230.26 44.272 226.036C42.544 221.812 41.68 217.204 41.68 212.212C41.68 206.004 42.608 200.564 44.464 195.892C46.352 191.22 48.944 187.332 52.24 184.228C55.568 181.092 59.376 178.756 63.664 177.22C67.984 175.652 72.544 174.868 77.344 174.868C83.456 174.868 88.816 175.796 93.424 177.652C98.032 179.508 101.872 182.052 104.944 185.284C108.016 188.484 110.304 192.148 111.808 196.276C113.344 200.404 114.08 204.756 114.016 209.332C113.92 215.604 112.688 220.468 110.32 223.924C107.952 227.38 104.048 229.108 98.608 229.108C96.016 229.108 93.536 228.5 91.168 227.284C88.832 226.068 87.216 224.292 86.32 221.956L89.344 222.004C87.968 224.532 86.128 226.308 83.824 227.332C81.52 228.324 79.168 228.82 76.768 228.82C73.376 228.82 70.384 228.084 67.792 226.612C65.2 225.108 63.152 223.028 61.648 220.372C60.176 217.716 59.44 214.628 59.44 211.108C59.44 207.492 60.208 204.356 61.744 201.7C63.312 199.044 65.424 196.996 68.08 195.556C70.736 194.116 73.696 193.396 76.96 193.396C79.04 193.396 81.216 193.828 83.488 194.692C85.76 195.524 87.52 196.66 88.768 198.1L86.8 200.692V194.74H93.904L93.76 212.836C93.76 215.3 94.192 217.108 95.056 218.26C95.92 219.38 97.136 219.94 98.704 219.94C100.368 219.94 101.584 219.476 102.352 218.548C103.12 217.62 103.616 216.372 103.84 214.804C104.096 213.236 104.24 211.46 104.272 209.476C104.336 204.452 103.536 200.308 101.872 197.044C100.24 193.748 98.096 191.14 95.44 189.22C92.784 187.3 89.92 185.94 86.848 185.14C83.808 184.34 80.912 183.94 78.16 183.94C73.84 183.94 69.984 184.612 66.592 185.956C63.232 187.268 60.4 189.156 58.096 191.62C55.792 194.084 54.064 197.028 52.912 200.452C51.76 203.876 51.248 207.7 51.376 211.924C51.504 216.02 52.224 219.668 53.536 222.868C54.848 226.068 56.688 228.788 59.056 231.028C61.424 233.236 64.208 234.916 67.408 236.068C70.64 237.22 74.224 237.796 78.16 237.796C80.144 237.796 82.112 237.604 84.064 237.22C86.048 236.836 87.888 236.292 89.584 235.588L92.608 244.132C90.304 245.028 87.888 245.7 85.36 246.148C82.864 246.628 80.32 246.868 77.728 246.868ZM77.44 219.652C79.616 219.652 81.456 219.028 82.96 217.78C84.496 216.532 85.264 214.308 85.264 211.108C85.264 208.292 84.624 206.164 83.344 204.724C82.064 203.252 80.208 202.516 77.776 202.516C74.864 202.516 72.688 203.3 71.248 204.868C69.84 206.404 69.136 208.484 69.136 211.108C69.136 213.764 69.856 215.86 71.296 217.396C72.768 218.9 74.816 219.652 77.44 219.652Z" fill="white"/>
<path d="M156.504 238.228C150.936 238.228 146.04 237.108 141.816 234.868C137.592 232.596 134.296 229.412 131.928 225.316C129.56 221.22 128.376 216.404 128.376 210.868V167.764L141.624 167.668V210.772C141.624 213.044 142.008 215.108 142.776 216.964C143.544 218.82 144.6 220.42 145.944 221.764C147.32 223.108 148.904 224.148 150.696 224.884C152.52 225.588 154.456 225.94 156.504 225.94C158.616 225.94 160.568 225.572 162.36 224.836C164.184 224.1 165.768 223.06 167.112 221.716C168.456 220.372 169.496 218.772 170.232 216.916C171 215.06 171.384 213.012 171.384 210.772V167.668H184.632V210.868C184.632 216.404 183.448 221.22 181.08 225.316C178.712 229.412 175.416 232.596 171.192 234.868C166.968 237.108 162.072 238.228 156.504 238.228ZM227.697 238.228C220.785 238.228 214.817 236.724 209.793 233.716C204.801 230.708 200.945 226.5 198.225 221.092C195.537 215.684 194.193 209.396 194.193 202.228C194.193 195.06 195.537 188.772 198.225 183.364C200.945 177.956 204.801 173.748 209.793 170.74C214.817 167.732 220.785 166.228 227.697 166.228C235.633 166.228 242.289 168.196 247.665 172.132C253.073 176.068 256.881 181.396 259.089 188.116L245.937 191.764C244.657 187.572 242.497 184.324 239.457 182.02C236.417 179.684 232.497 178.516 227.697 178.516C223.313 178.516 219.649 179.492 216.705 181.444C213.793 183.396 211.601 186.148 210.129 189.7C208.657 193.252 207.921 197.428 207.921 202.228C207.921 207.028 208.657 211.204 210.129 214.756C211.601 218.308 213.793 221.06 216.705 223.012C219.649 224.964 223.313 225.94 227.697 225.94C232.497 225.94 236.417 224.772 239.457 222.436C242.497 220.1 244.657 216.852 245.937 212.692L259.089 216.34C256.881 223.06 253.073 228.388 247.665 232.324C242.289 236.26 235.633 238.228 227.697 238.228ZM270.618 236.788V167.668H283.674V236.788H270.618Z" fill="#7EA9FB"/>
<path d="M326.5 31.7879L327.725 36.6195C330.129 46.1002 336.394 54.1403 345 58.7879C336.394 63.4355 330.129 71.4757 327.725 80.9563L326.5 85.7879L325.275 80.9563C322.871 71.4757 316.606 63.4355 308 58.7879C316.606 54.1403 322.871 46.1002 325.275 36.6195L326.5 31.7879Z" fill="white"/>
<path d="M18 213.788L19.8357 223.434C21.7786 233.644 27.5642 242.718 36 248.788C27.5642 254.858 21.7786 263.932 19.8357 274.141L18 283.788L16.1643 274.141C14.2214 263.932 8.43578 254.858 0 248.788C8.43578 242.718 14.2214 233.644 16.1643 223.434L18 213.788Z" fill="white"/>
</svg>
