<svg width="342" height="61" viewBox="0 0 342 61" fill="none" xmlns="http://www.w3.org/2000/svg">
<path d="M8 50.8581C8 39.6534 12.1673 23.773 19.192 17.7271C21.458 15.7768 27.9372 12.5906 30.384 14.7838C34.4225 18.4036 33.0558 33.4774 33.2338 39.3113C33.3464 42.9997 33.1627 49.2854 34.2183 52.7449C35.1917 55.9346 57.3715 28.7972 58.9858 26.8589C67.0503 17.1756 73.0941 6.1146 75.6702 25.5004C76.2983 30.2269 76.6642 34.8046 77.7428 39.3868C79.2524 45.7996 90.1264 28.9327 91.3701 27.2362C95.2526 21.9404 99.3398 14.9385 103.858 10.7084C107.454 7.34069 108.024 16.4096 108.365 19.161C108.939 23.7851 109.955 48.3153 115.671 46.4809C123.806 43.8702 131.559 29.9848 138.366 23.3118C141.318 20.4176 146.622 14.4819 150.491 14.4819C154.896 14.4819 157.606 36.5877 159.507 41.349C166.168 58.038 185.006 16.4198 189.974 10.2556C199.263 -1.26986 197.664 34.9357 201.995 40.7452C209.206 50.4193 224.527 21.0402 231.426 17.609C248.579 9.07797 244.188 34.1086 249.095 48.4004C250.518 52.5464 255.463 40.9491 256.141 39.5705C260.298 31.1258 266.923 22.8787 273.669 17.908C284.248 10.1132 289.037 38.2284 295.881 43.7669C304.674 50.8814 311.193 15.7572 319.511 14.4819C323.476 13.8739 333.047 42.3172 334 46.4809" stroke="#1D1C2C" stroke-width="16" stroke-linecap="round"/>
</svg>
