<svg width="837" height="1613" viewBox="0 0 837 1613" fill="none" xmlns="http://www.w3.org/2000/svg">
<path fill-rule="evenodd" clip-rule="evenodd" d="M-492.127 647.141C-481.424 485.073 -646.379 321.313 -575.539 178.252C-505.899 37.6143 -319.246 30.5653 -174.236 5.15906C-56.3185 -15.5005 56.1154 31.5392 174.725 46.8032C297.16 62.5594 451.453 -3.03357 534.228 96.3319C619.331 198.491 505.107 373.385 553.074 500.981C610.481 653.69 804.622 718.779 829.408 881.54C856.641 1060.36 800.392 1257.29 688.744 1391.87C572.962 1531.44 395.83 1613.81 222.989 1612.54C58.0046 1611.32 -65.8799 1462.93 -214.596 1385.23C-359.649 1309.45 -579.558 1323.39 -640.467 1161.41C-704.288 991.677 -504.206 830.042 -492.127 647.141Z" fill="url(#paint0_linear_548_1982)"/>
<defs>
<linearGradient id="paint0_linear_548_1982" x1="-653" y1="806.275" x2="836.198" y2="806.275" gradientUnits="userSpaceOnUse">
<stop offset="0.4375" stop-color="#7EA9FB"/>
<stop offset="0.711538" stop-color="#9ABDFE"/>
</linearGradient>
</defs>
</svg>
