<svg width="1216" height="1544" viewBox="0 0 1216 1544" fill="none" xmlns="http://www.w3.org/2000/svg">
<path fill-rule="evenodd" clip-rule="evenodd" d="M278.02 953.703C217.574 802.949 -1.98204 726.644 0.0134577 567.017C1.9752 410.094 167.218 323.008 286.975 237.383C384.357 167.755 506.075 161.538 619.619 124C736.825 85.2519 847.569 -40.622 965.179 13.1673C1086.1 68.469 1058.75 275.561 1157.19 369.859C1274.99 482.716 1478.19 457.434 1570.93 593.463C1672.83 742.919 1707.29 944.8 1664.83 1114.43C1620.81 1290.35 1496.72 1441.22 1340.33 1514.83C1191.05 1585.1 1015.18 1504.89 847.484 1499.15C683.921 1493.56 491.678 1601.25 366.699 1481.54C235.746 1356.11 346.236 1123.84 278.02 953.703Z" fill="url(#paint0_linear_548_1980)"/>
<defs>
<linearGradient id="paint0_linear_548_1980" x1="1221.88" y1="1571.67" x2="524.427" y2="117.754" gradientUnits="userSpaceOnUse">
<stop stop-color="#1D976C"/>
<stop offset="1" stop-color="#93F9B9"/>
</linearGradient>
</defs>
</svg>
