<svg width="1440" height="1544" viewBox="0 0 1440 1544" fill="none" xmlns="http://www.w3.org/2000/svg">
<path fill-rule="evenodd" clip-rule="evenodd" d="M124.944 953.703C64.498 802.949 -155.058 726.644 -153.062 567.017C-151.101 410.094 14.1424 323.008 133.899 237.383C231.281 167.755 353 161.538 466.544 124C583.749 85.2519 694.494 -40.622 812.103 13.1673C933.019 68.469 905.675 275.561 1004.11 369.859C1121.92 482.716 1325.11 457.434 1417.86 593.463C1519.76 742.919 1554.21 944.8 1511.76 1114.43C1467.73 1290.35 1343.65 1441.22 1187.26 1514.83C1037.98 1585.1 862.1 1504.89 694.408 1499.15C530.846 1493.56 338.602 1601.25 213.623 1481.54C82.6705 1356.11 193.161 1123.84 124.944 953.703Z" fill="url(#paint0_linear_493_1398)"/>
<defs>
<linearGradient id="paint0_linear_493_1398" x1="1068.8" y1="1571.67" x2="371.351" y2="117.754" gradientUnits="userSpaceOnUse">
<stop stop-color="#1D976C"/>
<stop offset="1" stop-color="#93F9B9"/>
</linearGradient>
</defs>
</svg>
