<svg width="1064" height="1613" viewBox="0 0 1064 1613" fill="none" xmlns="http://www.w3.org/2000/svg">
<path fill-rule="evenodd" clip-rule="evenodd" d="M-265.127 647.141C-254.424 485.073 -419.379 321.313 -348.539 178.253C-278.899 37.6147 -92.2457 30.5658 52.7643 5.15955C170.681 -15.5 283.115 31.5397 401.725 46.8037C524.16 62.5599 678.453 -3.03308 761.228 96.3324C846.331 198.492 732.107 373.385 780.074 500.982C837.481 653.69 1031.62 718.78 1056.41 881.54C1083.64 1060.37 1027.39 1257.29 915.744 1391.87C799.962 1531.44 622.83 1613.81 449.989 1612.54C285.005 1611.32 161.12 1462.93 12.4041 1385.23C-132.649 1309.45 -352.558 1323.4 -413.467 1161.41C-477.288 991.678 -277.206 830.042 -265.127 647.141Z" fill="url(#paint0_linear_548_1976)"/>
<defs>
<linearGradient id="paint0_linear_548_1976" x1="-426" y1="806.275" x2="1063.2" y2="806.275" gradientUnits="userSpaceOnUse">
<stop offset="0.4375" stop-color="#7EA9FB"/>
<stop offset="0.711538" stop-color="#9ABDFE"/>
</linearGradient>
</defs>
</svg>
