<svg width="503" height="1613" viewBox="0 0 503 1613" fill="none" xmlns="http://www.w3.org/2000/svg">
<path fill-rule="evenodd" clip-rule="evenodd" d="M160.873 647.141C171.576 485.073 6.62122 321.313 77.461 178.252C147.101 37.6143 333.754 30.5653 478.764 5.15906C596.681 -15.5005 709.115 31.5392 827.725 46.8032C950.16 62.5594 1104.45 -3.03357 1187.23 96.3319C1272.33 198.491 1158.11 373.385 1206.07 500.981C1263.48 653.69 1457.62 718.779 1482.41 881.54C1509.64 1060.36 1453.39 1257.29 1341.74 1391.87C1225.96 1531.44 1048.83 1613.81 875.989 1612.54C711.005 1611.32 587.12 1462.93 438.404 1385.23C293.351 1309.45 73.442 1323.39 12.5327 1161.41C-51.2879 991.677 148.794 830.042 160.873 647.141Z" fill="#ECEFFD"/>
</svg>
