<svg width="235" height="235" viewBox="0 0 235 235" fill="none" xmlns="http://www.w3.org/2000/svg">
<circle cx="117.5" cy="117.5" r="117.5" fill="url(#paint0_linear_301_196)"/>
<path d="M166.386 73.0175C157.441 68.8564 147.756 65.8362 137.667 64.0913C137.578 64.0884 137.49 64.105 137.409 64.1398C137.328 64.1746 137.255 64.2267 137.196 64.2926C135.985 66.5074 134.573 69.3933 133.631 71.6081C122.931 69.9973 112.048 69.9973 101.348 71.6081C100.406 69.3262 98.9937 66.5074 97.7159 64.2926C97.6486 64.1584 97.4468 64.0913 97.245 64.0913C87.1564 65.8362 77.5385 68.8564 68.526 73.0175C68.4587 73.0175 68.3915 73.0846 68.3242 73.1517C50.0301 100.467 44.9858 127.045 47.4743 153.354C47.4743 153.488 47.5416 153.622 47.6761 153.689C59.7825 162.549 71.4181 167.918 82.9191 171.475C83.1209 171.542 83.3227 171.475 83.3899 171.341C86.0803 167.649 88.5015 163.757 90.5865 159.663C90.721 159.394 90.5865 159.126 90.3175 159.059C86.4838 157.582 82.8519 155.837 79.2872 153.824C79.0182 153.689 79.0182 153.287 79.22 153.085C79.9598 152.548 80.6996 151.944 81.4395 151.407C81.574 151.273 81.7758 151.273 81.9103 151.34C105.047 161.877 130 161.877 152.867 151.34C153.002 151.273 153.203 151.273 153.338 151.407C154.078 152.011 154.818 152.548 155.557 153.152C155.827 153.354 155.827 153.756 155.49 153.891C151.993 155.971 148.294 157.649 144.46 159.126C144.191 159.193 144.124 159.528 144.191 159.73C146.343 163.824 148.764 167.716 151.388 171.408C151.589 171.475 151.791 171.542 151.993 171.475C163.561 167.918 175.197 162.549 187.303 153.689C187.438 153.622 187.505 153.488 187.505 153.354C190.464 122.951 182.595 96.5748 166.655 73.1517C166.588 73.0846 166.521 73.0175 166.386 73.0175ZM94.0839 137.313C87.1564 137.313 81.3722 130.937 81.3722 123.085C81.3722 115.233 87.0219 108.857 94.0839 108.857C101.213 108.857 106.863 115.3 106.796 123.085C106.796 130.937 101.146 137.313 94.0839 137.313ZM140.963 137.313C134.035 137.313 128.251 130.937 128.251 123.085C128.251 115.233 133.901 108.857 140.963 108.857C148.092 108.857 153.742 115.3 153.674 123.085C153.674 130.937 148.092 137.313 140.963 137.313Z" fill="white"/>
<defs>
<linearGradient id="paint0_linear_301_196" x1="23.0104" y1="-11.2604" x2="235" y2="189.958" gradientUnits="userSpaceOnUse">
<stop stop-color="#7EA9FB"/>
<stop offset="1" stop-color="#1957D1"/>
</linearGradient>
</defs>
</svg>
