<svg width="123" height="123" viewBox="0 0 123 123" fill="none" xmlns="http://www.w3.org/2000/svg">
<path d="M35.4904 0H86.8902C106.471 0 122.381 15.9095 122.381 35.4904V86.8902C122.381 96.3028 118.641 105.33 111.986 111.986C105.33 118.641 96.3028 122.381 86.8902 122.381H35.4904C15.9095 122.381 0 106.471 0 86.8902V35.4904C0 26.0777 3.73915 17.0506 10.3949 10.3949C17.0506 3.73915 26.0777 0 35.4904 0ZM34.2665 12.2381C28.4242 12.2381 22.8212 14.5589 18.6901 18.6901C14.5589 22.8212 12.2381 28.4242 12.2381 34.2665V88.114C12.2381 100.291 22.0897 110.142 34.2665 110.142H88.114C93.9563 110.142 99.5593 107.822 103.69 103.69C107.822 99.5593 110.142 93.9563 110.142 88.114V34.2665C110.142 22.0897 100.291 12.2381 88.114 12.2381H34.2665ZM93.3151 21.4166C95.3437 21.4166 97.2892 22.2224 98.7237 23.6569C100.158 25.0913 100.964 27.0368 100.964 29.0654C100.964 31.094 100.158 33.0395 98.7237 34.4739C97.2892 35.9083 95.3437 36.7142 93.3151 36.7142C91.2866 36.7142 89.3411 35.9083 87.9066 34.4739C86.4722 33.0395 85.6664 31.094 85.6664 29.0654C85.6664 27.0368 86.4722 25.0913 87.9066 23.6569C89.3411 22.2224 91.2866 21.4166 93.3151 21.4166ZM61.1903 30.5951C69.3046 30.5951 77.0866 33.8185 82.8243 39.5562C88.562 45.2939 91.7854 53.0759 91.7854 61.1903C91.7854 69.3046 88.562 77.0866 82.8243 82.8243C77.0866 88.562 69.3046 91.7854 61.1903 91.7854C53.0759 91.7854 45.2939 88.562 39.5562 82.8243C33.8185 77.0866 30.5951 69.3046 30.5951 61.1903C30.5951 53.0759 33.8185 45.2939 39.5562 39.5562C45.2939 33.8185 53.0759 30.5951 61.1903 30.5951ZM61.1903 42.8332C56.3217 42.8332 51.6525 44.7672 48.2098 48.2098C44.7672 51.6525 42.8332 56.3217 42.8332 61.1903C42.8332 66.0589 44.7672 70.7281 48.2098 74.1707C51.6525 77.6133 56.3217 79.5473 61.1903 79.5473C66.0589 79.5473 70.7281 77.6133 74.1707 74.1707C77.6133 70.7281 79.5473 66.0589 79.5473 61.1903C79.5473 56.3217 77.6133 51.6525 74.1707 48.2098C70.7281 44.7672 66.0589 42.8332 61.1903 42.8332Z" fill="white"/>
</svg>
