<svg width="123" height="123" viewBox="0 0 123 123" fill="none" xmlns="http://www.w3.org/2000/svg">
<path d="M108.783 0C112.389 0 115.848 1.43262 118.398 3.98271C120.948 6.5328 122.381 9.99147 122.381 13.5978V108.783C122.381 112.389 120.948 115.848 118.398 118.398C115.848 120.948 112.389 122.381 108.783 122.381H13.5978C9.99147 122.381 6.5328 120.948 3.98271 118.398C1.43262 115.848 0 112.389 0 108.783V13.5978C0 9.99147 1.43262 6.5328 3.98271 3.98271C6.5328 1.43262 9.99147 0 13.5978 0H108.783ZM105.383 105.383V69.349C105.383 63.4706 103.048 57.833 98.8914 53.6763C94.7348 49.5197 89.0971 47.1845 83.2188 47.1845C77.4397 47.1845 70.7087 50.7199 67.4453 56.0231V48.4763H48.4763V105.383H67.4453V71.8646C67.4453 66.6294 71.6606 62.3461 76.8958 62.3461C79.4202 62.3461 81.8413 63.3489 83.6263 65.134C85.4114 66.919 86.4142 69.3401 86.4142 71.8646V105.383H105.383ZM26.3798 37.802C29.4092 37.802 32.3144 36.5986 34.4565 34.4565C36.5986 32.3144 37.802 29.4092 37.802 26.3798C37.802 20.0568 32.7028 14.8896 26.3798 14.8896C23.3324 14.8896 20.4098 16.1002 18.255 18.255C16.1002 20.4098 14.8896 23.3324 14.8896 26.3798C14.8896 32.7028 20.0568 37.802 26.3798 37.802ZM35.8303 105.383V48.4763H16.9973V105.383H35.8303Z" fill="white"/>
</svg>
