<svg width="423" height="739" viewBox="0 0 423 739" fill="none" xmlns="http://www.w3.org/2000/svg">
<path fill-rule="evenodd" clip-rule="evenodd" d="M-249.577 456.544C-278.513 384.377 -383.616 347.849 -382.66 271.435C-381.721 196.315 -302.618 154.626 -245.29 113.637C-198.673 80.3057 -140.406 77.3297 -86.0514 59.3601C-29.9445 40.8111 23.0695 -19.4455 79.3698 6.30377C137.253 32.777 124.163 131.913 171.285 177.054C227.68 231.079 324.951 218.977 369.348 284.095C418.127 355.64 434.622 452.282 414.298 533.487C393.222 617.698 333.823 689.922 258.959 725.16C187.498 758.796 103.304 720.398 23.0286 717.653C-55.2697 714.975 -147.298 766.527 -207.126 709.222C-269.814 649.178 -216.921 537.987 -249.577 456.544Z" fill="url(#paint0_linear_568_1399)"/>
<defs>
<linearGradient id="paint0_linear_568_1399" x1="-286.064" y1="558.536" x2="356.695" y2="250.204" gradientUnits="userSpaceOnUse">
<stop offset="0.4375" stop-color="#7EA9FB"/>
<stop offset="0.711538" stop-color="#9ABDFE"/>
</linearGradient>
</defs>
</svg>
