<svg width="723" height="1009" viewBox="0 0 723 1009" fill="none" xmlns="http://www.w3.org/2000/svg">
<path fill-rule="evenodd" clip-rule="evenodd" d="M-195.357 623.115C-234.85 524.618 -378.3 474.762 -376.996 370.468C-375.715 267.94 -267.751 211.042 -189.506 155.097C-125.881 109.604 -46.3539 105.543 27.8316 81.0169C104.409 55.7001 176.766 -26.5413 253.608 8.60263C332.61 44.7348 314.744 180.041 379.058 241.652C456.03 315.389 588.79 298.871 649.386 387.747C715.962 485.396 738.475 617.298 710.736 728.131C681.97 843.066 600.899 941.642 498.72 989.737C401.187 1035.64 286.274 983.237 176.71 979.491C69.8442 975.836 -55.7605 1046.2 -137.417 967.984C-222.977 886.032 -150.787 734.274 -195.357 623.115Z" fill="url(#paint0_linear_225_2104)"/>
<defs>
<linearGradient id="paint0_linear_225_2104" x1="421.324" y1="1026.87" x2="-34.3635" y2="76.9357" gradientUnits="userSpaceOnUse">
<stop stop-color="#1D976C"/>
<stop offset="1" stop-color="#93F9B9"/>
</linearGradient>
</defs>
</svg>
