<svg width="687" height="1009" viewBox="0 0 687 1009" fill="none" xmlns="http://www.w3.org/2000/svg">
<path fill-rule="evenodd" clip-rule="evenodd" d="M181.648 623.115C142.155 524.618 -1.29495 474.762 0.00883982 370.468C1.29055 267.94 109.254 211.042 187.499 155.097C251.125 109.604 330.651 105.543 404.837 81.0169C481.415 55.7001 553.771 -26.5413 630.613 8.60263C709.615 44.7348 691.749 180.041 756.064 241.652C833.035 315.389 965.796 298.871 1026.39 387.747C1092.97 485.396 1115.48 617.298 1087.74 728.131C1058.98 843.066 977.904 941.642 875.726 989.737C778.192 1035.64 663.279 983.237 553.715 979.491C446.849 975.836 321.245 1046.2 239.588 967.984C154.028 886.032 226.218 734.274 181.648 623.115Z" fill="url(#paint0_linear_568_1401)"/>
<defs>
<linearGradient id="paint0_linear_568_1401" x1="798.329" y1="1026.87" x2="342.642" y2="76.9357" gradientUnits="userSpaceOnUse">
<stop stop-color="#1D976C"/>
<stop offset="1" stop-color="#93F9B9"/>
</linearGradient>
</defs>
</svg>
